<svg id="图层_1" data-name="图层 1" xmlns="http://www.w3.org/2000/svg" viewBox="0 0 32 32"><defs><style>.cls-1{fill:#66bc95;}</style></defs><title>logo</title><g id="lgo"><path id="top" class="cls-1" d="M10.8,8.2a7.51,7.51,0,0,1,6.48,3.53H31.11a15.69,15.69,0,0,0-30.22,0H4.32A7.84,7.84,0,0,1,10.8,8.2ZM24.44,6.43A2.1,2.1,0,0,1,26.3,8.3a1.87,1.87,0,0,1-3.73,0h0A1.94,1.94,0,0,1,24.44,6.43Z"/><path id="bottom" class="cls-1" d="M31.41,12.91H18a8,8,0,0,1,.59,3A7.85,7.85,0,0,1,10.8,23.8a7.64,7.64,0,0,1-7.75-7.75,7.84,7.84,0,0,1,.59-3H.59a16.47,16.47,0,0,0-.29,3,15.7,15.7,0,0,0,31.4,0A17.55,17.55,0,0,0,31.41,12.91ZM22.28,27.53A3.73,3.73,0,1,1,26,23.8h0A3.73,3.73,0,0,1,22.28,27.53Z"/></g></svg>